<?xml version="1.0" standalone="no"?>
<!DOCTYPE svg PUBLIC "-//W3C//DTD SVG 20010904//EN"
 "http://www.w3.org/TR/2001/REC-SVG-20010904/DTD/svg10.dtd">
<svg version="1.0" xmlns="http://www.w3.org/2000/svg"
 width="200.000000pt" height="200.000000pt" viewBox="0 0 200.000000 200.000000"
 preserveAspectRatio="xMidYMid meet">
<metadata>
Created by potrace 1.11, written by Peter Selinger 2001-2013
</metadata>
<g transform="translate(0.000000,200.000000) scale(0.100000,-0.100000)"
fill="#000000" stroke="none">
<path d="M1394 1601 c-31 -6 -68 -37 -79 -67 -7 -19 -10 -211 -10 -539 0 -482
2 -512 19 -542 11 -17 30 -36 43 -42 15 -7 104 -11 234 -11 168 0 216 3 239
15 61 31 60 24 60 587 0 551 0 542 -53 582 -25 19 -42 20 -230 21 -112 0 -212
-2 -223 -4z m408 -123 l3 -36 -201 -1 -201 0 2 37 c1 20 3 37 4 37 0 0 88 0
195 0 l194 0 4 -37z m-167 -648 c4 -6 1 -18 -6 -26 -12 -14 -14 -14 -26 2 -7
9 -10 21 -7 25 7 12 31 11 39 -1z m13 -102 c39 -39 -17 -100 -58 -63 -14 13
-18 25 -14 39 11 36 48 48 72 24z"/>
<path d="M128 1316 l-23 -12 -3 -342 c-2 -325 -1 -343 17 -361 17 -17 35 -19
230 -17 l211 1 0 -57 c0 -56 -1 -58 -26 -58 -52 0 -87 -45 -51 -67 17 -10 368
-11 390 -1 23 12 22 55 -2 63 -10 3 -23 5 -27 4 -34 -6 -41 2 -43 56 -2 51 0
55 21 56 13 0 110 1 216 2 179 2 195 3 208 21 21 29 21 673 0 702 -14 18 -32
19 -555 20 -389 1 -546 -2 -563 -10z m1082 -362 l0 -322 -530 -1 -530 0 0 323
0 323 530 0 530 0 0 -323z"/>
</g>
</svg>
